<svg width="25" height="33" viewBox="0 0 25 33" fill="none" xmlns="http://www.w3.org/2000/svg">
<path d="M18.625 0.5L24.3015 8.10896C24.4304 8.28169 24.5 8.49142 24.5 8.70692V31C24.5 31.5523 24.0523 32 23.5 32H2C1.44772 32 1 31.5523 1 31V1.5C1 0.947715 1.4433 0.5 1.99558 0.5C5.51694 0.5 17.2461 0.5 18.625 0.5ZM18.625 0.5V7.375C18.625 7.92728 19.0727 8.375 19.625 8.375H22.5" stroke="black"/>
<path d="M16 4L9 4" stroke="black"/>
<path d="M16 8L9 8" stroke="black"/>
<path d="M3 8H8.5" stroke="black"/>
<path d="M8 4L4 4" stroke="black"/>
<path d="M3 11H5.5M7 11H10M12 11H22.5M22.5 14H21M19.5 14H11M9.5 20H3M3 17H5.5M7 17H13M14.5 17H22.5M9.5 14H3M3 23H5.5M7 23H10M12 23H22.5M22.5 20H21M19.5 20H11M9.5 26H3M3 29H5.5M7 29H10M12 29H22.5M22.5 26H21M19.5 26H11" stroke="black"/>
</svg>
