<svg xmlns="http://www.w3.org/2000/svg" xmlns:xlink="http://www.w3.org/1999/xlink" width="886" height="886" viewBox="0 0 886 886">
  <defs>
    <rect id="rect-1" width="886" height="886" x="0" y="0"/>
    <mask id="mask-2" maskContentUnits="userSpaceOnUse" maskUnits="userSpaceOnUse">
      <rect width="886" height="886" x="0" y="0" fill="black"/>
      <use fill="white" xlink:href="#rect-1"/>
    </mask>
  </defs>
  <g>
    <use fill="none" xlink:href="#rect-1"/>
    <g mask="url(#mask-2)">
      <path fill="rgb(255,255,255)" fill-rule="evenodd" d="M885.76206055 489.34321493c0-5.487028-2.9526123-10.5486491-7.73663737-13.24980266-.92652181-.61107178-1.86385905-1.11579183-2.8516683-1.53128458l-202.143986-90.33767904V112.3696106l-.00360514-.39115804-.00360515-.12798259-.01081543-.26137288-.00721028-.15592245-.02163086-.33347575-.01802572-.23072916-.01081543-.1207723c-.32446289-3.46454264-1.66918131-6.63256226-3.7277181-9.2012268l-.09012858-.1090556-.12257487-.15051472-.1333903-.15592245-.09733886-.11175944-.23793946-.26858317-.04686686-.05227457-.22351888-.23703817-.05407715-.05497843-.24875488-.25776775-.30643717-.29922688-.28120118-.26137289-.05407715-.04686686-.25236002-.22351888-.04326172-.037854-.28480631-.24244589-.0829183-.06579386-.19467773-.15682373-.1333903-.10454915-.14781088-.11356202c-1.15364583-.87785237-2.41544596-1.6133016-3.77097981-2.18201293L450.05887044 1.5051473c-4.49200846-2.0071635-9.62933756-2.0071635-14.12134603 0L223.57295736 96.4114441c-1.35553386.56871134-2.61733399 1.30416055-3.77097982 2.18201293l-.14781087.1144633-.1333903.10364787-.19467774.15682373-.0829183.06579386-.2848063.24244588-.04326173.037854-.25236002.22351889-.05407715.04686686-.27038574.25236003-.29922689.29291788-.2667806.2730896-.05407715.05587972-.22351888.23703817-.04686686.0513733-.23793945.26858316-.09733887.11266073-.1333903.15502116-.12257487.15051473-.08652344.10905558c-2.06214192 2.56866455-3.40686035 5.73488159-3.73132324 9.2012268l-.00721029.1207723-.02163085.23072917-.01802572.33347575-.00721029.15592244-.01081543.26137289-.00360514.12798258-.00721029.39115804v271.85303548l-202.143986 90.34128418C4.41269531 477.24705811.23433431 483.4965739.23433431 490.42836304V773.5799174c0 6.82543742 4.01252441 13.01276448 10.24581706 15.79773763l212.76473795 95.0838501.10094401.04506429c4.38024903 1.97922363 9.40221355 1.99003906 13.78967285.02433471l.19467774-.08652343L443 792.53395793l205.66981608 91.91402791.69579264.26407674c4.3369873 1.64755046 9.1570638 1.5556193 13.42194825-.26407674l212.72868652-95.07033081c6.23329264-2.78497315 10.24581706-8.97230021 10.24581706-15.79773763V489.34321493zM443 36.25692546l170.31778158 76.11629028L443 188.48590088l-170.32138672-76.11448771L443 36.25692546zm17.3046875 222.55540568c0 9.55543212-7.7474528 17.30288492-17.3046875 17.30288492-9.55362956 0-17.3046875-7.74565022-17.30108236-17.30288492v-40.15228272l-178.12291666-79.6015625v245.16235759l178.12291666 79.60336507v-48.56398316c0-9.5572347 7.7474528-17.3046875 17.30108236-17.3046875 9.5572347 0 17.3046875 7.7474528 17.3046875 17.3046875v48.56398316l178.12291667-79.60336507V139.05848592l-178.12291667 79.6015625v40.15228272zm-59.7119873 231.69714762l-170.32138672-76.11448771L59.9535319 490.50947876l170.31778158 76.11629028 170.32138672-76.11629028zm255.13598632 76.11629028l-170.31778157-76.11629028 170.31778157-76.11448771 170.31778158 76.11448771-170.31778158 76.11629028zm17.3046875 34.39757284v240.93983358l178.12291667-79.60336508V517.19565023L672.5647054 597.0081136c.30643718 1.28793742.46866862 2.63265584.46866862 4.01522827zM34.84370931 517.1974528l178.59158529 79.81246338c-.30643718 1.28973999-.46866862 2.63265584-.46866862 4.01522827v240.938031L34.8437093 762.35981039V517.1974528zm390.85160319 0l-178.59158529 79.8106608c.30643718 1.28974.46866862 2.63445842.46866862 4.01522828v240.94163615l178.12291667-79.60336507V517.1974528zm34.609375 0l178.59158529 79.81246338c-.30643718 1.28973999-.46866862 2.63265584-.46866862 4.01522827v240.938031L460.3046875 762.35981039V517.1974528z"/>
      <path fill="rgb(255,255,255)" fill-rule="evenodd" d="M443 354.0175664c-7.32334375 0-14.0375625-4.8003203-16.38753906-11.74296093-2.215-6.54117188-.22496094-14.01160547 4.97682812-18.56619922 5.6707461-4.96471484 14.13966016-5.63786719 20.54066406-1.67855469 6.1362422 3.79664844 9.30992188 11.30342188 7.76634375 18.34989063C458.17448047 348.23780079 451.0570625 354.0175664 443 354.0175664z"/>
    </g>
  </g>
</svg>
