<svg xmlns="http://www.w3.org/2000/svg" xmlns:xlink="http://www.w3.org/1999/xlink" width="883" height="883" viewBox="0 0 883 883">
  <defs>
    <rect id="rect-1" width="883" height="883" x="0" y="0"/>
    <mask id="mask-2" maskContentUnits="userSpaceOnUse" maskUnits="userSpaceOnUse">
      <rect width="883" height="883" x="0" y="0" fill="black"/>
      <use fill="white" xlink:href="#rect-1"/>
    </mask>
  </defs>
  <g>
    <use fill="none" xlink:href="#rect-1"/>
    <g mask="url(#mask-2)">
      <path fill="rgb(255,255,255)" fill-rule="evenodd" d="M353.2006954 88.21599828C353.2006954 39.49533265 392.6968965 0 441.41582527 0c48.72240249 0 88.21512985 39.49533265 88.21512985 88.21599828-.04515837 48.70069174-39.51356968 88.16823463-88.21512985 88.21599828-48.71892877 0-88.21512985-39.49533265-88.21512985-88.21599828zm29.4050433 0c0 32.47928585 26.33080071 58.81008657 58.81008656 58.81008657 32.47928585 0 58.81008657-26.33080072 58.81008657-58.81008657 0-32.48015428-26.33080072-58.810955-58.81008657-58.810955-32.47928585 0-58.81008657 26.33080072-58.81008657 58.810955z"/>
      <path fill="rgb(255,255,255)" fill-rule="evenodd" d="M496.7135761 191.31689847h3.4702467c40.58000184.04776365 73.46571298 32.93434322 73.51434507 73.51347664v88.21512985c0 24.36120124-19.74810054 44.10843335-44.10930179 44.10843335h-176.4302597c-24.36120125 0-44.10930179-19.7472321-44.10930179-44.10843335V264.8303751c.04863209-40.57913342 32.93434322-73.46571299 73.51434507-73.51347664h3.4702467l3.10203232 1.54406872c32.8961323 16.3803286 71.57600908 16.3803286 104.4756151 0l3.10203233-1.54406872zm32.87528998 176.43112813c8.1180846 0 14.70078478-6.5835686 14.70078478-14.70252164v-88.21599828c-.00347372-23.14192538-17.89313384-42.3472571-40.97600597-43.99032686-39.28083042 18.23095315-84.5989869 18.23095315-123.88329104 0-23.08634585 1.64306975-40.97253225 20.84840148-40.97600597 43.99032686v88.21599828c0 8.11895303 6.58270018 14.70252164 14.7042585 14.70252164h176.4302597z"/>
      <path fill="rgb(255,255,255)" fill-rule="evenodd" d="M662.25 573.86565058c0-48.72066563 39.49620108-88.21599828 88.21512985-88.21599828 48.70156017.04776365 88.16997149 39.51530654 88.21512985 88.21599828 0 48.72066563-39.49272736 88.21599828-88.21512985 88.21599828-48.71892877 0-88.21512985-39.49533265-88.21512985-88.21599828zm29.40504328.00086843c0 32.47928585 26.33080072 58.81008656 58.81008657 58.81008656 32.47928585 0 58.81008657-26.33080071 58.81008657-58.81008656 0-32.48015428-26.33080072-58.810955-58.81008657-58.810955-32.47928585 0-58.81008657 26.33080072-58.81008657 58.810955z"/>
      <path fill="rgb(255,255,255)" fill-rule="evenodd" d="M805.7628807 676.96655077h3.47024669c40.58000185.04776365 73.46571298 32.93434322 73.51434507 73.51347663v88.21512986c0 24.36120124-19.74810054 44.10843335-44.10930179 44.10843335h-176.4302597c-24.36120124 0-44.10930178-19.7472321-44.10930178-44.10843335V750.4800274c.04863208-40.57913341 32.93434322-73.46571298 73.51434507-73.51347663h3.47024669l3.10203232 1.47025216c32.8961323 16.37859174 71.57600908 16.37859174 104.4756151 0l3.10203233-1.47025216zm32.87528997 176.43199656c8.1180846 0 14.70078478-6.58356861 14.70078478-14.70252164V750.4800274c-.00347372-23.14192538-17.88966011-42.3472571-40.97600597-43.99032686-39.28083041 18.23095315-84.5989869 18.23095315-123.88329104 0-23.08634585 1.64306976-40.97253225 20.84840148-40.97600597 43.99032686v88.21599829c0 8.11895303 6.58270018 14.70252164 14.7042585 14.70252164h176.4302597z"/>
      <path fill="rgb(255,255,255)" fill-rule="evenodd" d="M44.15139081 573.86565058c0-48.72066563 39.49620108-88.21599828 88.21512985-88.21599828 48.70156017.04776365 88.16997149 39.51530654 88.21512986 88.21599828 0 48.72066563-39.49272736 88.21599828-88.21512986 88.21599828-48.71892877 0-88.21512985-39.49533265-88.21512985-88.21599828zm29.40504329.00086843c0 32.47928585 26.33080072 58.81008656 58.81008656 58.81008656 32.47928585 0 58.81008657-26.33080071 58.81008657-58.81008656 0-32.48015428-26.33080072-58.810955-58.81008657-58.810955-32.47928584 0-58.81008656 26.33080072-58.81008656 58.810955z"/>
      <path fill="rgb(255,255,255)" fill-rule="evenodd" d="M187.66427151 676.96655077h3.4702467c40.58000184.04776365 73.46571298 32.93434322 73.51434506 73.51347663v88.21512986c0 24.36120124-19.74810054 44.10843335-44.10930178 44.10843335H44.10930179C19.74810054 882.80359061 0 863.05635851 0 838.69515726V750.4800274c.04863209-40.57913341 32.93434322-73.46571298 73.51434507-73.51347663h3.47024669l3.10203233 1.47025216c32.8961323 16.37859174 71.57600908 16.37859174 104.4756151 0l3.10203232-1.47025216zm32.87528998 176.43199656c8.1180846 0 14.70078478-6.58356861 14.70078478-14.70252164V750.4800274c-.00347372-23.14192538-17.88966012-42.3472571-40.97600598-43.99032686-39.2808304 18.23095315-84.5989869 18.23095315-123.88329103 0C47.2947034 708.1327703 29.408517 727.33810202 29.40504328 750.4800274v88.21599829c0 8.11895303 6.58270018 14.70252164 14.7042585 14.70252164h176.4302597z"/>
      <path fill="rgb(255,255,255)" fill-rule="evenodd" d="M587.51140833 747.37855833c-.00735833-.01655625-.01471666-.0331125-.022075-.05150833-3.18615833-7.47790625-11.83036041-10.95655833-19.30642708-7.7704-66.45494792 27.85129167-140.25903125 32.93222083-209.90381667 14.45176667l13.7748-4.04708334c7.8035125-2.2847625 12.27737917-10.45987083 9.99261667-18.26338333-2.2847625-7.8035125-10.45987083-12.27737917-18.26338333-9.99261667l-58.86666667 17.26265c-.22075 0-.38263333.25018334-.58866667.32376667-1.36313125.507725-2.64348125 1.21780417-3.7969 2.10448333-.51140416.2759375-1.00257291.5849875-1.47166666.92715-1.55260834 1.38520625-2.78328959 3.09233959-3.60558334 5.00366667-.79837916 1.92420417-1.17917291 3.995575-1.11846666 6.07798333.35871875 1.99226875.8498875 3.95878334 1.47166666 5.88666667.0883.20603333 0 .4415.16188334.64753333l29.43333333 56.32068334c3.7637875 7.20932708 12.65817292 10.00365416 19.8675 6.23986666 7.20932708-3.7637875 10.00365417-12.65817291 6.23986667-19.8675L339.53005625 779.73315c79.1278375 23.7858125 164.08163542 19.16293958 240.16128333-13.0684 7.483425-3.16592292 10.98599167-11.80092708 7.82006875-19.28619167z"/>
      <path fill="rgb(255,255,255)" fill-rule="evenodd" d="M834.53801667 386.94531667c-5.74685834-5.74501875-15.06250834-5.74501875-20.80936667 0L792.90456667 407.7694c-12.1854-128.89960417-94.02294375-240.75730833-213.18563334-291.39-7.47790625-3.18615833-16.12210833.29249375-19.30826666 7.7704-3.18615834 7.47790625.29249375 16.12210833 7.7704 19.30826667 106.8981875 45.43218958 181.20631666 144.71818125 194.65735 260.08765l-16.6004-16.6004c-5.84619584-5.64752084-15.16184584-5.4856375-20.80936667.36055833-5.5077125 5.70270833-5.5077125 14.74426042 0 20.44880833l44.15 44.15c5.7395 5.75421667 15.05882917 5.76709375 20.81304583.02575417l.02575417-.02575417 44.15-44.15c5.73766042-5.75421666 5.72478333-15.06986666-.02943333-20.80936666z"/>
      <path fill="rgb(255,255,255)" fill-rule="evenodd" d="M323.33988333 127.43161667c-.04782916-.85908542-.17476041-1.7108125-.38263333-2.54598334 0-.13245-.16188333-.22075-.22075-.36791666-.05886667-.14716667 0-.25018334 0-.36791667-.40102917-.71559792-.86460417-1.39624375-1.38336667-2.0309-.47645208-.86276458-1.03936458-1.67586042-1.6777-2.42825-.87012291-.77078542-1.83406458-1.42751667-2.86975-1.95731667-.51692291-.43966041-1.06879791-.83885-1.64826666-1.19205l-58.86666667-26.88735c-7.51837708-3.08682083-16.11658958.50588542-19.20341042 8.0242625-2.91941875 7.10998959.12509167 15.27038125 6.98857709 18.7306375l30.47821666 13.93668334C159.81380208 191.75264792 88.21721875 311.36051667 88.3 441.5c0 8.12727917 6.5893875 14.71666667 14.71666667 14.71666667 8.12727916 0 14.71666666-6.5893875 14.71666666-14.71666667-.07358333-114.59316458 60.52413125-220.6617 159.27848334-278.79253333l-10.64015 22.23688333c-3.50808542 7.31602292-.43414167 16.09083542 6.87268333 19.61731667 1.98491042.96946041 4.16297708 1.47350625 6.37231667 1.47166666 5.6512-.00735833 10.79835416-3.25054375 13.245-8.34435l29.43333333-61.41265c0-.14716666 0-.30905.11773333-.45621666.38263334-1.00625209.64937292-2.052975.7947-3.11993334.25202292-.79286041.43966042-1.60411666.55923334-2.42825-.04966875-.95842291-.19131667-1.9094875-.42678334-2.84031666z"/>
    </g>
  </g>
</svg>
